# xmcd CD database file
#
# Track frame offsets:
#	187
#	11365
#	36945
#	75055
#	95580
#	116610
#	128395
#	139210
#	155120
#	168780
#	184122
#	199585
#	211965
#	254700
#
# Disc length: 3556 seconds
#
# Revision: 0
# Processed by: cddbd v1.5.2PL0 Copyright (c) Steve Scherf et al.
# Submitted via: CDex 1.70beta2
#
DISCID=b20de20e
DTITLE=UNKNOWN - JINGLE BELLS ~ JAZZ ON CHRISTMAS
DYEAR=1988
DGENRE=Jazz
TTITLE0=JINGLE BELLS - PATTI PAGE
TTITLE1=AIR - THE SWINGLE SINGERS
TTITLE2=IT DON'T MEAN A THING - CLARK TERRY and JON FADDIS
TTITLE3=GREEN SLEEVES - DOROTHY ASHBY
TTITLE4=ROUND MIDNIGHT - THE THREE
TTITLE5=ROMANCE ESPAGNOLE - THE SWINGLE SINGERS
TTITLE6=SILENT NIGHT/ DINAH WASHINGTON
TTITLE7=TAKE FIVE - QUINCY JONES ORCHESTRA
TTITLE8=MISTY - SARAH VAUGHAN
TTITLE9=WHITE CHRISTMAS - PATTI PAGE
TTITLE10=STARDUST - CLIFFORD BROWN
TTITLE11=SANTA CLAUS IS COMING TO TOWN - PATTI PAGE
TTITLE12=CONCIERTO DE ARANJUEZ DOROTHY ASHBY
TTITLE13=THE FIRST NOEL - PATTI PAGE
EXTD=YEAR: 1988
EXTT0=
EXTT1=
EXTT2=
EXTT3=
EXTT4=
EXTT5=
EXTT6=
EXTT7=
EXTT8=
EXTT9=
EXTT10=
EXTT11=
EXTT12=
EXTT13=
PLAYORDER=
